<?xml version="1.0" encoding="utf-8" ?>
<svg baseProfile="full" height="1536" version="1.1" width="1024" xmlns="http://www.w3.org/2000/svg" xmlns:ev="http://www.w3.org/2001/xml-events" xmlns:xlink="http://www.w3.org/1999/xlink"><defs /><rect fill="#07182B" height="100%" width="100%" x="0" y="0" /><rect fill="none" height="1476" stroke="#D4AF37" stroke-width="3" width="964" x="30" y="30" /><rect fill="#102B4A" height="95" rx="18" stroke="#D4AF37" stroke-width="4" width="744" x="140" y="45" /><text fill="#D4AF37" font-family="Arial" font-size="46" font-weight="bold" text-anchor="middle" x="512.0" y="105">WORLD CUP 2026</text><rect fill="#4EEFFF" height="48" rx="14" stroke="#D4AF37" stroke-width="2" width="394" x="315" y="155" /><text fill="#07182B" font-family="Arial" font-size="24" font-weight="bold" text-anchor="middle" x="512.0" y="187">HUITIÈME DE FINALE</text><circle cx="245" cy="335" fill="#102B4A" r="85" stroke="#D4AF37" stroke-width="10" /><circle cx="779" cy="335" fill="#102B4A" r="85" stroke="#D4AF37" stroke-width="10" /><text fill="#FFFFFF" font-family="Arial" font-size="58" font-weight="bold" text-anchor="middle" x="512.0" y="350">VS</text><rect fill="#102B4A" height="55" rx="14" stroke="#D4AF37" stroke-width="3" width="240" x="125" y="445" /><text fill="#FFFFFF" font-family="Arial" font-size="28" font-weight="bold" text-anchor="middle" x="245" y="482">PORTUGAL</text><rect fill="#102B4A" height="55" rx="14" stroke="#D4AF37" stroke-width="3" width="240" x="659" y="445" /><text fill="#FFFFFF" font-family="Arial" font-size="28" font-weight="bold" text-anchor="middle" x="779" y="482">ESPAGNE</text><rect fill="#8C6A16" height="410" rx="35" stroke="#F6D36A" stroke-width="5" width="210" x="407" y="535" /><text fill="#FFFFFF" font-family="Arial" font-size="28" font-weight="bold" text-anchor="middle" x="512.0" y="750">TROPHÉE</text><rect fill="#101010" height="210" rx="22" stroke="#D4AF37" stroke-width="3" width="724" x="150" y="930" /><text fill="#FFFFFF" font-family="Arial" font-size="38" font-weight="bold" text-anchor="middle" x="512.0" y="1045">DALLAS STADIUM</text><ellipse cx="512.0" cy="1195" fill="#102B4A" rx="560" ry="175" stroke="#4EEFFF" stroke-width="3" /><text fill="#FFFFFF" font-family="Arial" font-size="34" font-weight="bold" text-anchor="middle" x="512.0" y="1205">TERRE / DALLAS</text><rect fill="#102B4A" height="120" rx="16" stroke="#D4AF37" stroke-width="3" width="914" x="55" y="1330" /><text fill="#FFFFFF" font-family="Arial" font-size="17" font-weight="bold" text-anchor="middle" x="169.0" y="1378">06 JUILLET 2026</text><text fill="#4EEFFF" font-family="Arial" font-size="16" text-anchor="middle" x="169.0" y="1415">21H FR / 14H LOCAL</text><line stroke="#D4AF37" stroke-width="2" x1="283.5" x2="283.5" y1="1340" y2="1440" /><text fill="#FFFFFF" font-family="Arial" font-size="17" font-weight="bold" text-anchor="middle" x="397.5" y="1378">MATCH 93</text><text fill="#4EEFFF" font-family="Arial" font-size="16" text-anchor="middle" x="397.5" y="1415">HUITIÈME</text><line stroke="#D4AF37" stroke-width="2" x1="512.0" x2="512.0" y1="1340" y2="1440" /><text fill="#FFFFFF" font-family="Arial" font-size="17" font-weight="bold" text-anchor="middle" x="626.0" y="1378">DALLAS STADIUM</text><text fill="#4EEFFF" font-family="Arial" font-size="16" text-anchor="middle" x="626.0" y="1415">ARLINGTON, USA</text><line stroke="#D4AF37" stroke-width="2" x1="740.5" x2="740.5" y1="1340" y2="1440" /><text fill="#FFFFFF" font-family="Arial" font-size="17" font-weight="bold" text-anchor="middle" x="854.5" y="1378">DALLAS</text><text fill="#4EEFFF" font-family="Arial" font-size="16" text-anchor="middle" x="854.5" y="1415">TEXAS, USA</text><text fill="#D4AF37" font-family="Arial" font-size="24" font-weight="bold" text-anchor="middle" x="512.0" y="1495">SportPredictIA</text></svg>