<?xml version="1.0" encoding="utf-8" ?>
<svg baseProfile="full" height="1536" version="1.1" width="1024" xmlns="http://www.w3.org/2000/svg" xmlns:ev="http://www.w3.org/2001/xml-events" xmlns:xlink="http://www.w3.org/1999/xlink"><defs><linearGradient id="headerGradientV2" x1="0%" x2="100%" y1="0%" y2="100%"><stop offset="0%" stop-color="#061323" /><stop offset="50%" stop-color="#102B4A" /><stop offset="100%" stop-color="#061323" /></linearGradient><linearGradient id="titleGoldGradient" x1="0%" x2="0%" y1="0%" y2="100%"><stop offset="0%" stop-color="#FFF1A6" /><stop offset="45%" stop-color="#F6D36A" /><stop offset="100%" stop-color="#D4AF37" /></linearGradient><linearGradient id="phaseGradientV2" x1="0%" x2="100%" y1="0%" y2="100%"><stop offset="0%" stop-color="#07182B" /><stop offset="50%" stop-color="#12385E" /><stop offset="100%" stop-color="#07182B" /></linearGradient></defs><rect fill="#07182B" height="100%" width="100%" x="0" y="0" /><rect fill="none" height="1486" stroke="#D4AF37" stroke-width="3" width="974" x="25" y="25" /><rect fill="none" height="1446" stroke="#4EEFFF" stroke-width="1" width="934" x="45" y="45" /><polygon fill="none" opacity="0.75" points="100,42 924,42 960,97 924,153 100,153 64,97" stroke="#8C6A16" stroke-width="8" /><polygon fill="url(#headerGradientV2)" points="100,42 924,42 960,97 924,153 100,153 64,97" stroke="#F6D36A" stroke-width="4" /><polygon fill="none" points="118,52 906,52 938,97 906,143 118,143 86,97" stroke="#D4AF37" stroke-width="2" /><polygon fill="none" opacity="0.95" points="140,64 884,64 910,97 884,131 140,131 114,97" stroke="#4EEFFF" stroke-width="2" /><line opacity="0.22" stroke="#FFFFFF" stroke-width="1" x1="155" x2="870" y1="67" y2="67" /><line opacity="0.1" stroke="#FFFFFF" stroke-width="1" x1="155" x2="870" y1="72" y2="72" /><text fill="#000000" font-family="Arial" font-size="48" font-weight="bold" opacity="0.45" text-anchor="middle" x="515.0" y="116">COUPE DU MONDE 2026</text><text fill="url(#titleGoldGradient)" font-family="Arial" font-size="48" font-weight="bold" text-anchor="middle" x="512.0" y="113">COUPE DU MONDE 2026</text><polygon fill="url(#phaseGradientV2)" points="342,166 682,166 706,189 682,214 342,214 318,189" stroke="#4EEFFF" stroke-width="3" /><polygon fill="none" opacity="0.25" points="356,173 668,173 688,189 668,207 356,207 336,189" stroke="#FFFFFF" stroke-width="0.8" /><text fill="#FFFFFF" font-family="Arial" font-size="25" font-weight="bold" text-anchor="middle" x="512.0" y="198">1/8ᵉ DE FINALE</text><circle cx="245" cy="330" fill="#102B4A" r="92" stroke="#F6D36A" stroke-width="14" /><circle cx="245" cy="330" fill="#102B4A" r="77" stroke="#D4AF37" stroke-width="3" /><circle cx="227" cy="312" fill="none" opacity="0.25" r="58" stroke="#FFFFFF" stroke-width="1" /><circle cx="779" cy="330" fill="#102B4A" r="92" stroke="#F6D36A" stroke-width="14" /><circle cx="779" cy="330" fill="#102B4A" r="77" stroke="#D4AF37" stroke-width="3" /><circle cx="761" cy="312" fill="none" opacity="0.25" r="58" stroke="#FFFFFF" stroke-width="1" /><text fill="#F6D36A" font-family="Arial" font-size="64" font-weight="bold" text-anchor="middle" x="512.0" y="350">VS</text><rect fill="#102B4A" height="62" rx="12" stroke="#D4AF37" stroke-width="3" width="240" x="115" y="455" /><text fill="#FFFFFF" font-family="Arial" font-size="28" font-weight="bold" text-anchor="middle" x="235" y="497">PORTUGAL</text><rect fill="#102B4A" height="62" rx="12" stroke="#D4AF37" stroke-width="3" width="240" x="669" y="455" /><text fill="#FFFFFF" font-family="Arial" font-size="28" font-weight="bold" text-anchor="middle" x="789" y="497">ESPAGNE</text><rect fill="#08111D" height="260" opacity="0.9" width="904" x="60" y="560" /><rect fill="#101820" height="120" stroke="#D4AF37" stroke-width="1" width="55" x="80" y="700" /><rect fill="#101820" height="160" stroke="#D4AF37" stroke-width="1" width="55" x="165" y="660" /><rect fill="#101820" height="95" stroke="#D4AF37" stroke-width="1" width="55" x="250" y="725" /><rect fill="#101820" height="180" stroke="#D4AF37" stroke-width="1" width="55" x="335" y="640" /><rect fill="#101820" height="130" stroke="#D4AF37" stroke-width="1" width="55" x="420" y="690" /><rect fill="#101820" height="220" stroke="#D4AF37" stroke-width="1" width="55" x="505" y="600" /><rect fill="#101820" height="150" stroke="#D4AF37" stroke-width="1" width="55" x="590" y="670" /><rect fill="#101820" height="100" stroke="#D4AF37" stroke-width="1" width="55" x="675" y="720" /><rect fill="#101820" height="170" stroke="#D4AF37" stroke-width="1" width="55" x="760" y="650" /><rect fill="#101820" height="135" stroke="#D4AF37" stroke-width="1" width="55" x="845" y="685" /><ellipse cx="512.0" cy="875" fill="#101010" rx="390" ry="95" stroke="#F6D36A" stroke-width="4" /><ellipse cx="512.0" cy="875" fill="#102B4A" rx="300" ry="55" stroke="#FFFFFF" stroke-width="2" /><rect fill="#101010" height="45" rx="6" stroke="#D4AF37" stroke-width="2" width="404" x="310" y="910" /><text fill="#FFFFFF" font-family="Arial" font-size="24" font-weight="bold" text-anchor="middle" x="512.0" y="940">DALLAS STADIUM</text><rect fill="#9B7416" height="350" rx="50" stroke="#F6D36A" stroke-width="5" width="184" x="420" y="515" /><circle cx="512" cy="560" fill="#B88918" r="85" stroke="#F6D36A" stroke-width="4" /><text fill="#FFFFFF" font-family="Arial" font-size="26" font-weight="bold" text-anchor="middle" x="512.0" y="710">TROPHÉE</text><ellipse cx="512.0" cy="1165" fill="#102B4A" rx="590" ry="135" stroke="#4EEFFF" stroke-width="3" /><text fill="#FFFFFF" font-family="Arial" font-size="30" font-weight="bold" text-anchor="middle" x="512.0" y="1175">TERRE / DALLAS</text><line opacity="0.75" stroke="#F6D36A" stroke-width="4" x1="512.0" x2="512.0" y1="870" y2="1165" /><rect fill="#102B4A" height="125" rx="14" stroke="#D4AF37" stroke-width="3" width="914" x="55" y="1308" /><text fill="#FFFFFF" font-family="Arial" font-size="16" font-weight="bold" text-anchor="middle" x="169.25" y="1365">6 JUILLET 2026</text><text fill="#4EEFFF" font-family="Arial" font-size="15" text-anchor="middle" x="169.25" y="1405">21H FR / 14H LOCAL</text><line stroke="#D4AF37" stroke-width="2" x1="283.5" x2="283.5" y1="1320" y2="1421" /><text fill="#FFFFFF" font-family="Arial" font-size="16" font-weight="bold" text-anchor="middle" x="397.75" y="1365">MATCH 93</text><text fill="#4EEFFF" font-family="Arial" font-size="15" text-anchor="middle" x="397.75" y="1405">1/8ᵉ DE FINALE</text><line stroke="#D4AF37" stroke-width="2" x1="512.0" x2="512.0" y1="1320" y2="1421" /><text fill="#FFFFFF" font-family="Arial" font-size="16" font-weight="bold" text-anchor="middle" x="626.25" y="1365">DALLAS STADIUM</text><text fill="#4EEFFF" font-family="Arial" font-size="15" text-anchor="middle" x="626.25" y="1405">ARLINGTON, USA</text><line stroke="#D4AF37" stroke-width="2" x1="740.5" x2="740.5" y1="1320" y2="1421" /><text fill="#FFFFFF" font-family="Arial" font-size="16" font-weight="bold" text-anchor="middle" x="854.75" y="1365">DALLAS</text><text fill="#4EEFFF" font-family="Arial" font-size="15" text-anchor="middle" x="854.75" y="1405">TEXAS, USA</text><text fill="#F6D36A" font-family="Arial" font-size="24" font-weight="bold" text-anchor="middle" x="512.0" y="1496">SportPredictIA</text></svg>